<?xml version="1.0" encoding="utf-8"?>
<!-- Generator: Adobe Illustrator 25.2.3, SVG Export Plug-In . SVG Version: 6.00 Build 0)  -->
<svg version="1.1" id="Layer_1" xmlns="http://www.w3.org/2000/svg" xmlns:xlink="http://www.w3.org/1999/xlink" x="0px" y="0px"
	 viewBox="0 0 595.28 841.89" style="enable-background:new 0 0 595.28 841.89;" xml:space="preserve">
<style type="text/css">
	.st0{fill:#FFFFFF;}
</style>
<g>
	<path class="st0" d="M141.28,539c0-94.03,0-188.1,0-282.2c94.03,0,188.1,0,282.2,0c0,94.03,0,188.1,0,282.2
		C329.44,539,235.38,539,141.28,539z M308.54,454.19c20.19,0,40.37,0.01,60.56,0c8.18-0.01,17.05-6.32,19.77-14.03
		c5.03-14.27-4.16-28.47-19.25-29.73c-4.03-0.34-5.76-2.68-4.37-6.25c3.53-9.05,1.99-17.34-4.77-23.98
		c-6.56-6.44-14.66-8.19-23.59-4.81c-4.44,1.68-6.11,0.04-6.9-4.74c-0.83-5.06-1.68-10.43-4.04-14.86
		c-6.77-12.74-17.59-20.03-32.27-20.57c-14.72-0.54-26.02,5.81-34.19,17.94c-4.11,6.11-5.48,13.07-6.05,20.21
		c-0.26,3.23-2.06,3.89-4.85,4.32c-4.79,0.73-9.72,1.38-14.2,3.1c-17.51,6.71-27.43,28.45-21.67,46.3
		c4.93,15.29,19.62,27.44,37.61,27.19C269.72,453.96,289.13,454.18,308.54,454.19z M284.94,325.55
		c-11.44-18.28-36.48-24.61-56.21-11.52c-13.56,9-19.67,22.29-18.26,38.51c0.75,8.63,4.38,16.41,10.38,22.82
		c0.74,0.79,2.71,1.11,3.82,0.75c6.04-1.99,12.03-4.16,17.93-6.51c1.24-0.49,2.83-1.88,3-3.04c1.85-12.63,7.73-23.08,18.08-30.26
		C270.09,331.85,277.7,329.13,284.94,325.55z M354.5,498.42c-1.53-1.45-2.59-3.2-4.01-3.57c-1.47-0.39-4-0.01-4.84,1.03
		c-5.59,6.96-10.74,14.28-16.26,21.29c-2.13,2.7-3.13,5.23-0.44,7.78c2.49,2.36,4.63,1.37,7.75-2.69
		c4.3-5.59,8.82-11.02,13.13-16.61C351.43,503.57,352.7,501.24,354.5,498.42z M277.72,521.95c1.85,1.56,3.02,2.95,4.51,3.72
		c2.82,1.45,4.25-1.04,5.58-2.7c5.37-6.7,10.53-13.56,15.84-20.32c2.04-2.59,2.16-5.42-0.15-7.1c-2.65-1.92-4.91-1.29-6.9,1.29
		c-4.07,5.27-8.34,10.4-12.39,15.68C282.07,515.31,280.22,518.3,277.72,521.95z M229.44,521.69c1.51,1.51,2.55,3.04,3.98,3.88
		c2.94,1.71,4.6-0.89,6.01-2.63c5.55-6.85,10.96-13.82,16.21-20.91c1.52-2.05,1.94-4.68-0.67-6.52c-2.47-1.74-4.7-1.42-6.65,1.09
		c-4.25,5.46-8.67,10.79-12.89,16.28C233.45,515.46,231.75,518.26,229.44,521.69z M354.03,459.28c-0.31-0.43-0.63-0.86-0.94-1.3
		c-3.77,0.54-7.96-1.86-11.19,2.37c-4.43,5.8-8.93,11.54-13.42,17.29c-1.73,2.22-1.49,5.59,0.9,7.11c2.45,1.56,4.61,1.11,6.46-1.49
		c2.89-4.07,6.11-7.89,9.14-11.86C348.03,467.38,351.02,463.32,354.03,459.28z M257.96,457.89c-3.94,0-6.42-0.09-8.88,0.04
		c-0.96,0.05-2.25,0.31-2.77,0.97c-5.15,6.55-10.27,13.13-15.18,19.86c-1.45,1.98-1.09,4.28,1.09,5.83
		c2.27,1.61,4.32,1.34,6.08-0.94c4.38-5.67,8.8-11.3,13.17-16.98C253.45,464.09,255.34,461.43,257.96,457.89z M305.91,458.86
		c-0.35-0.32-0.7-0.63-1.05-0.95c-2.34,0-4.69-0.18-7,0.07c-1.27,0.14-2.87,0.67-3.62,1.6c-4.92,6.07-9.76,12.22-14.38,18.52
		c-1.57,2.14-1.66,4.73,0.9,6.53c2.29,1.6,4.34,1.19,6.06-1.06c4.38-5.71,8.8-11.38,13.2-17.08
		C302,463.95,303.95,461.4,305.91,458.86z M255.87,281.36c-0.02,0-0.05,0-0.07,0c0-1.95,0.25-3.93-0.06-5.83
		c-0.42-2.54-1.5-4.76-4.71-4.68c-3.15,0.08-4.36,2.3-4.59,4.83c-0.34,3.61-0.44,7.3-0.03,10.88c0.24,2.1,1.27,4.46,4.25,4.38
		c2.98-0.07,4.95-1.38,5.19-4.52C255.98,284.75,255.87,283.05,255.87,281.36z M183.71,352.62c0-0.01,0-0.02,0-0.03
		c2.2,0,4.42,0.2,6.59-0.05c2.54-0.29,4.25-2.18,3.6-4.5c-0.47-1.67-2.42-3.88-3.98-4.11c-3.92-0.59-7.99-0.21-12.01-0.21
		c-2.99,0-4.07,2.05-4.23,4.48c-0.18,2.72,1.49,4.25,4.2,4.4C179.82,352.71,181.77,352.62,183.71,352.62z M212.12,305.75
		c-0.11-4.38-9.29-13.68-12.7-13.56c-1.16,0.04-2.96,0.88-3.28,1.78c-0.54,1.52-0.84,3.94,0,4.98c2.69,3.33,5.79,6.38,9.07,9.12
		c1,0.83,3.27,0.82,4.64,0.32C211,307.97,211.69,306.28,212.12,305.75z M307.46,296.24c-0.85-1.16-1.51-3.03-2.6-3.33
		c-1.68-0.46-4.16-0.5-5.4,0.46c-3.06,2.36-5.94,5.15-8.2,8.27c-0.93,1.28-0.76,4.39,0.22,5.68c0.82,1.09,4.22,1.66,5.28,0.87
		c3.36-2.52,6.21-5.74,9.15-8.79C306.57,298.71,306.81,297.61,307.46,296.24z"/>
	<path d="M308.54,454.18c-19.41,0-38.81-0.22-58.22,0.06c-17.98,0.26-32.67-11.9-37.61-27.19c-5.76-17.85,4.16-39.58,21.67-46.3
		c4.48-1.72,9.41-2.37,14.2-3.1c2.8-0.43,4.59-1.08,4.85-4.32c0.58-7.14,1.94-14.1,6.05-20.21c8.17-12.13,19.47-18.48,34.19-17.94
		c14.68,0.54,25.5,7.83,32.27,20.57c2.35,4.43,3.2,9.8,4.04,14.86c0.79,4.77,2.46,6.42,6.9,4.74c8.93-3.38,17.03-1.63,23.59,4.81
		c6.77,6.64,8.31,14.93,4.77,23.98c-1.39,3.57,0.34,5.92,4.37,6.25c15.08,1.26,24.28,15.47,19.25,29.73
		c-2.72,7.71-11.58,14.03-19.77,14.03C348.91,454.2,328.72,454.19,308.54,454.18z"/>
	<path d="M284.94,325.55c-7.24,3.58-14.85,6.3-21.25,10.75c-10.35,7.18-16.23,17.63-18.08,30.26c-0.17,1.16-1.76,2.55-3,3.04
		c-5.91,2.35-11.89,4.52-17.93,6.51c-1.1,0.36-3.08,0.04-3.82-0.75c-6-6.41-9.63-14.18-10.38-22.82
		c-1.41-16.22,4.7-29.52,18.26-38.51C248.46,300.93,273.5,307.27,284.94,325.55z"/>
	<path d="M354.5,498.42c-1.8,2.82-3.07,5.15-4.67,7.22c-4.31,5.59-8.83,11.02-13.13,16.61c-3.12,4.06-5.26,5.05-7.75,2.69
		c-2.7-2.55-1.69-5.08,0.44-7.78c5.53-7.01,10.68-14.33,16.26-21.29c0.83-1.04,3.37-1.41,4.84-1.03
		C351.91,495.22,352.97,496.98,354.5,498.42z"/>
	<path d="M277.72,521.95c2.49-3.65,4.35-6.64,6.48-9.42c4.06-5.29,8.32-10.41,12.39-15.68c2-2.58,4.26-3.22,6.9-1.29
		c2.3,1.67,2.19,4.5,0.15,7.1c-5.31,6.75-10.47,13.62-15.84,20.32c-1.33,1.66-2.77,4.16-5.58,2.7
		C280.74,524.9,279.57,523.51,277.72,521.95z"/>
	<path d="M229.44,521.69c2.31-3.43,4-6.23,5.99-8.81c4.22-5.48,8.64-10.82,12.89-16.28c1.95-2.51,4.18-2.82,6.65-1.09
		c2.61,1.83,2.19,4.46,0.67,6.52c-5.25,7.08-10.66,14.05-16.21,20.91c-1.41,1.74-3.07,4.34-6.01,2.63
		C231.99,524.73,230.95,523.2,229.44,521.69z"/>
	<path d="M354.03,459.28c-3.02,4.04-6.01,8.1-9.06,12.11c-3.03,3.97-6.25,7.8-9.14,11.86c-1.85,2.6-4.01,3.05-6.46,1.49
		c-2.39-1.52-2.63-4.89-0.9-7.11c4.49-5.75,9-11.49,13.42-17.29c3.23-4.23,7.42-1.83,11.19-2.37
		C353.41,458.41,353.72,458.84,354.03,459.28z"/>
	<path d="M257.96,457.89c-2.61,3.55-4.51,6.2-6.5,8.79c-4.37,5.68-8.8,11.31-13.17,16.98c-1.76,2.28-3.81,2.55-6.08,0.94
		c-2.18-1.55-2.53-3.85-1.09-5.83c4.91-6.73,10.03-13.31,15.18-19.86c0.52-0.66,1.82-0.92,2.77-0.97
		C251.54,457.8,254.01,457.89,257.96,457.89z"/>
	<path d="M305.91,458.86c-1.96,2.54-3.91,5.09-5.87,7.63c-4.4,5.69-8.82,11.37-13.2,17.08c-1.73,2.25-3.77,2.66-6.06,1.06
		c-2.57-1.8-2.48-4.39-0.9-6.53c4.62-6.3,9.46-12.45,14.38-18.52c0.75-0.92,2.35-1.46,3.62-1.6c2.31-0.25,4.67-0.07,7-0.07
		C305.21,458.22,305.56,458.54,305.91,458.86z"/>
	<path d="M255.87,281.36c0,1.69,0.11,3.38-0.02,5.06c-0.25,3.14-2.22,4.44-5.19,4.52c-2.98,0.07-4.01-2.28-4.25-4.38
		c-0.41-3.59-0.31-7.28,0.03-10.88c0.24-2.53,1.44-4.75,4.59-4.83c3.21-0.08,4.29,2.15,4.71,4.68c0.31,1.89,0.06,3.88,0.06,5.83
		C255.82,281.36,255.85,281.36,255.87,281.36z"/>
	<path d="M183.71,352.62c-1.94,0-3.89,0.09-5.82-0.02c-2.71-0.15-4.38-1.68-4.2-4.4c0.16-2.43,1.24-4.49,4.23-4.48
		c4.01,0,8.08-0.38,12.01,0.21c1.55,0.23,3.51,2.44,3.98,4.11c0.65,2.32-1.06,4.22-3.6,4.5c-2.17,0.25-4.39,0.05-6.59,0.05
		C183.71,352.61,183.71,352.61,183.71,352.62z"/>
	<path d="M212.12,305.75c-0.42,0.53-1.11,2.22-2.27,2.65c-1.37,0.5-3.65,0.51-4.64-0.32c-3.28-2.75-6.39-5.8-9.07-9.12
		c-0.84-1.04-0.54-3.46,0-4.98c0.32-0.9,2.12-1.74,3.28-1.78C202.83,292.07,212,301.37,212.12,305.75z"/>
	<path d="M307.46,296.24c-0.66,1.37-0.89,2.47-1.56,3.16c-2.94,3.05-5.79,6.27-9.15,8.79c-1.06,0.79-4.46,0.22-5.28-0.87
		c-0.98-1.29-1.14-4.4-0.22-5.68c2.26-3.12,5.14-5.91,8.2-8.27c1.24-0.96,3.72-0.92,5.4-0.46
		C305.95,293.2,306.62,295.08,307.46,296.24z"/>
</g>
</svg>
